<svg xmlns="http://www.w3.org/2000/svg" xmlns:xlink="http://www.w3.org/1999/xlink" width="600" height="400" viewBox="0 0 2400 1600">
<defs>
  <clipPath id="clip980">
    <rect x="0" y="0" width="2400" height="1600"></rect>
  </clipPath>
</defs>
<path clip-path="url(#clip980)" d="
M0 1600 L2400 1600 L2400 0 L0 0  Z
  " fill="#ffffff" fill-rule="evenodd" fill-opacity="1"></path>
<defs>
  <clipPath id="clip981">
    <rect x="480" y="0" width="1681" height="1600"></rect>
  </clipPath>
</defs>
<path clip-path="url(#clip980)" d="
M186.274 1486.45 L2352.76 1486.45 L2352.76 47.2441 L186.274 47.2441  Z
  " fill="#ffffff" fill-rule="evenodd" fill-opacity="1"></path>
<defs>
  <clipPath id="clip982">
    <rect x="186" y="47" width="2167" height="1440"></rect>
  </clipPath>
</defs>
<polyline clip-path="url(#clip982)" style="stroke:#000000; stroke-linecap:round; stroke-linejoin:round; stroke-width:2; stroke-opacity:0.1; fill:none" points="
  226.945,1486.45 226.945,47.2441 
  "></polyline>
<polyline clip-path="url(#clip982)" style="stroke:#000000; stroke-linecap:round; stroke-linejoin:round; stroke-width:2; stroke-opacity:0.1; fill:none" points="
  639.844,1486.45 639.844,47.2441 
  "></polyline>
<polyline clip-path="url(#clip982)" style="stroke:#000000; stroke-linecap:round; stroke-linejoin:round; stroke-width:2; stroke-opacity:0.1; fill:none" points="
  1052.74,1486.45 1052.74,47.2441 
  "></polyline>
<polyline clip-path="url(#clip982)" style="stroke:#000000; stroke-linecap:round; stroke-linejoin:round; stroke-width:2; stroke-opacity:0.1; fill:none" points="
  1465.64,1486.45 1465.64,47.2441 
  "></polyline>
<polyline clip-path="url(#clip982)" style="stroke:#000000; stroke-linecap:round; stroke-linejoin:round; stroke-width:2; stroke-opacity:0.1; fill:none" points="
  1878.54,1486.45 1878.54,47.2441 
  "></polyline>
<polyline clip-path="url(#clip982)" style="stroke:#000000; stroke-linecap:round; stroke-linejoin:round; stroke-width:2; stroke-opacity:0.1; fill:none" points="
  2291.44,1486.45 2291.44,47.2441 
  "></polyline>
<polyline clip-path="url(#clip980)" style="stroke:#000000; stroke-linecap:round; stroke-linejoin:round; stroke-width:4; stroke-opacity:1; fill:none" points="
  186.274,1486.45 2352.76,1486.45 
  "></polyline>
<polyline clip-path="url(#clip980)" style="stroke:#000000; stroke-linecap:round; stroke-linejoin:round; stroke-width:4; stroke-opacity:1; fill:none" points="
  226.945,1486.45 226.945,1467.55 
  "></polyline>
<polyline clip-path="url(#clip980)" style="stroke:#000000; stroke-linecap:round; stroke-linejoin:round; stroke-width:4; stroke-opacity:1; fill:none" points="
  639.844,1486.45 639.844,1467.55 
  "></polyline>
<polyline clip-path="url(#clip980)" style="stroke:#000000; stroke-linecap:round; stroke-linejoin:round; stroke-width:4; stroke-opacity:1; fill:none" points="
  1052.74,1486.45 1052.74,1467.55 
  "></polyline>
<polyline clip-path="url(#clip980)" style="stroke:#000000; stroke-linecap:round; stroke-linejoin:round; stroke-width:4; stroke-opacity:1; fill:none" points="
  1465.64,1486.45 1465.64,1467.55 
  "></polyline>
<polyline clip-path="url(#clip980)" style="stroke:#000000; stroke-linecap:round; stroke-linejoin:round; stroke-width:4; stroke-opacity:1; fill:none" points="
  1878.54,1486.45 1878.54,1467.55 
  "></polyline>
<polyline clip-path="url(#clip980)" style="stroke:#000000; stroke-linecap:round; stroke-linejoin:round; stroke-width:4; stroke-opacity:1; fill:none" points="
  2291.44,1486.45 2291.44,1467.55 
  "></polyline>
<path clip-path="url(#clip980)" d="M226.945 1517.37 Q223.333 1517.37 221.505 1520.93 Q219.699 1524.47 219.699 1531.6 Q219.699 1538.71 221.505 1542.27 Q223.333 1545.82 226.945 1545.82 Q230.579 1545.82 232.384 1542.27 Q234.213 1538.71 234.213 1531.6 Q234.213 1524.47 232.384 1520.93 Q230.579 1517.37 226.945 1517.37 M226.945 1513.66 Q232.755 1513.66 235.81 1518.27 Q238.889 1522.85 238.889 1531.6 Q238.889 1540.33 235.81 1544.94 Q232.755 1549.52 226.945 1549.52 Q221.134 1549.52 218.056 1544.94 Q215 1540.33 215 1531.6 Q215 1522.85 218.056 1518.27 Q221.134 1513.66 226.945 1513.66 Z" fill="#000000" fill-rule="evenodd" fill-opacity="1"></path><path clip-path="url(#clip980)" d="M630.226 1544.91 L637.865 1544.91 L637.865 1518.55 L629.554 1520.21 L629.554 1515.95 L637.818 1514.29 L642.494 1514.29 L642.494 1544.91 L650.133 1544.91 L650.133 1548.85 L630.226 1548.85 L630.226 1544.91 Z" fill="#000000" fill-rule="evenodd" fill-opacity="1"></path><path clip-path="url(#clip980)" d="M1047.4 1544.91 L1063.72 1544.91 L1063.72 1548.85 L1041.77 1548.85 L1041.77 1544.91 Q1044.43 1542.16 1049.02 1537.53 Q1053.62 1532.88 1054.8 1531.53 Q1057.05 1529.01 1057.93 1527.27 Q1058.83 1525.51 1058.83 1523.82 Q1058.83 1521.07 1056.89 1519.33 Q1054.97 1517.6 1051.86 1517.6 Q1049.66 1517.6 1047.21 1518.36 Q1044.78 1519.13 1042 1520.68 L1042 1515.95 Q1044.83 1514.82 1047.28 1514.24 Q1049.73 1513.66 1051.77 1513.66 Q1057.14 1513.66 1060.34 1516.35 Q1063.53 1519.03 1063.53 1523.52 Q1063.53 1525.65 1062.72 1527.57 Q1061.93 1529.47 1059.83 1532.07 Q1059.25 1532.74 1056.15 1535.95 Q1053.04 1539.15 1047.4 1544.91 Z" fill="#000000" fill-rule="evenodd" fill-opacity="1"></path><path clip-path="url(#clip980)" d="M1469.89 1530.21 Q1473.25 1530.93 1475.12 1533.2 Q1477.02 1535.47 1477.02 1538.8 Q1477.02 1543.92 1473.5 1546.72 Q1469.98 1549.52 1463.5 1549.52 Q1461.32 1549.52 1459.01 1549.08 Q1456.72 1548.66 1454.26 1547.81 L1454.26 1543.29 Q1456.21 1544.43 1458.52 1545.01 Q1460.84 1545.58 1463.36 1545.58 Q1467.76 1545.58 1470.05 1543.85 Q1472.37 1542.11 1472.37 1538.8 Q1472.37 1535.75 1470.21 1534.03 Q1468.08 1532.3 1464.26 1532.3 L1460.24 1532.3 L1460.24 1528.45 L1464.45 1528.45 Q1467.9 1528.45 1469.73 1527.09 Q1471.56 1525.7 1471.56 1523.11 Q1471.56 1520.45 1469.66 1519.03 Q1467.78 1517.6 1464.26 1517.6 Q1462.34 1517.6 1460.14 1518.01 Q1457.95 1518.43 1455.31 1519.31 L1455.31 1515.14 Q1457.97 1514.4 1460.28 1514.03 Q1462.62 1513.66 1464.68 1513.66 Q1470.01 1513.66 1473.11 1516.09 Q1476.21 1518.5 1476.21 1522.62 Q1476.21 1525.49 1474.57 1527.48 Q1472.92 1529.45 1469.89 1530.21 Z" fill="#000000" fill-rule="evenodd" fill-opacity="1"></path><path clip-path="url(#clip980)" d="M1881.55 1518.36 L1869.74 1536.81 L1881.55 1536.81 L1881.55 1518.36 M1880.32 1514.29 L1886.2 1514.29 L1886.2 1536.81 L1891.13 1536.81 L1891.13 1540.7 L1886.2 1540.7 L1886.2 1548.85 L1881.55 1548.85 L1881.55 1540.7 L1865.95 1540.7 L1865.95 1536.19 L1880.32 1514.29 Z" fill="#000000" fill-rule="evenodd" fill-opacity="1"></path><path clip-path="url(#clip980)" d="M2281.72 1514.29 L2300.07 1514.29 L2300.07 1518.22 L2286 1518.22 L2286 1526.7 Q2287.02 1526.35 2288.04 1526.19 Q2289.06 1526 2290.07 1526 Q2295.86 1526 2299.24 1529.17 Q2302.62 1532.34 2302.62 1537.76 Q2302.62 1543.34 2299.15 1546.44 Q2295.68 1549.52 2289.36 1549.52 Q2287.18 1549.52 2284.91 1549.15 Q2282.67 1548.78 2280.26 1548.04 L2280.26 1543.34 Q2282.34 1544.47 2284.57 1545.03 Q2286.79 1545.58 2289.26 1545.58 Q2293.27 1545.58 2295.61 1543.48 Q2297.94 1541.37 2297.94 1537.76 Q2297.94 1534.15 2295.61 1532.04 Q2293.27 1529.94 2289.26 1529.94 Q2287.39 1529.94 2285.51 1530.35 Q2283.66 1530.77 2281.72 1531.65 L2281.72 1514.29 Z" fill="#000000" fill-rule="evenodd" fill-opacity="1"></path><polyline clip-path="url(#clip982)" style="stroke:#000000; stroke-linecap:round; stroke-linejoin:round; stroke-width:2; stroke-opacity:0.1; fill:none" points="
  186.274,1450.98 2352.76,1450.98 
  "></polyline>
<polyline clip-path="url(#clip982)" style="stroke:#000000; stroke-linecap:round; stroke-linejoin:round; stroke-width:2; stroke-opacity:0.1; fill:none" points="
  186.274,1129.88 2352.76,1129.88 
  "></polyline>
<polyline clip-path="url(#clip982)" style="stroke:#000000; stroke-linecap:round; stroke-linejoin:round; stroke-width:2; stroke-opacity:0.1; fill:none" points="
  186.274,808.782 2352.76,808.782 
  "></polyline>
<polyline clip-path="url(#clip982)" style="stroke:#000000; stroke-linecap:round; stroke-linejoin:round; stroke-width:2; stroke-opacity:0.1; fill:none" points="
  186.274,487.683 2352.76,487.683 
  "></polyline>
<polyline clip-path="url(#clip982)" style="stroke:#000000; stroke-linecap:round; stroke-linejoin:round; stroke-width:2; stroke-opacity:0.1; fill:none" points="
  186.274,166.583 2352.76,166.583 
  "></polyline>
<polyline clip-path="url(#clip980)" style="stroke:#000000; stroke-linecap:round; stroke-linejoin:round; stroke-width:4; stroke-opacity:1; fill:none" points="
  186.274,1486.45 186.274,47.2441 
  "></polyline>
<polyline clip-path="url(#clip980)" style="stroke:#000000; stroke-linecap:round; stroke-linejoin:round; stroke-width:4; stroke-opacity:1; fill:none" points="
  186.274,1450.98 205.172,1450.98 
  "></polyline>
<polyline clip-path="url(#clip980)" style="stroke:#000000; stroke-linecap:round; stroke-linejoin:round; stroke-width:4; stroke-opacity:1; fill:none" points="
  186.274,1129.88 205.172,1129.88 
  "></polyline>
<polyline clip-path="url(#clip980)" style="stroke:#000000; stroke-linecap:round; stroke-linejoin:round; stroke-width:4; stroke-opacity:1; fill:none" points="
  186.274,808.782 205.172,808.782 
  "></polyline>
<polyline clip-path="url(#clip980)" style="stroke:#000000; stroke-linecap:round; stroke-linejoin:round; stroke-width:4; stroke-opacity:1; fill:none" points="
  186.274,487.683 205.172,487.683 
  "></polyline>
<polyline clip-path="url(#clip980)" style="stroke:#000000; stroke-linecap:round; stroke-linejoin:round; stroke-width:4; stroke-opacity:1; fill:none" points="
  186.274,166.583 205.172,166.583 
  "></polyline>
<path clip-path="url(#clip980)" d="M62.9365 1436.78 Q59.3254 1436.78 57.4967 1440.35 Q55.6912 1443.89 55.6912 1451.02 Q55.6912 1458.12 57.4967 1461.69 Q59.3254 1465.23 62.9365 1465.23 Q66.5707 1465.23 68.3763 1461.69 Q70.205 1458.12 70.205 1451.02 Q70.205 1443.89 68.3763 1440.35 Q66.5707 1436.78 62.9365 1436.78 M62.9365 1433.08 Q68.7467 1433.08 71.8022 1437.68 Q74.8809 1442.27 74.8809 1451.02 Q74.8809 1459.74 71.8022 1464.35 Q68.7467 1468.93 62.9365 1468.93 Q57.1264 1468.93 54.0477 1464.35 Q50.9921 1459.74 50.9921 1451.02 Q50.9921 1442.27 54.0477 1437.68 Q57.1264 1433.08 62.9365 1433.08 Z" fill="#000000" fill-rule="evenodd" fill-opacity="1"></path><path clip-path="url(#clip980)" d="M83.0984 1462.38 L87.9827 1462.38 L87.9827 1468.26 L83.0984 1468.26 L83.0984 1462.38 Z" fill="#000000" fill-rule="evenodd" fill-opacity="1"></path><path clip-path="url(#clip980)" d="M108.168 1436.78 Q104.557 1436.78 102.728 1440.35 Q100.922 1443.89 100.922 1451.02 Q100.922 1458.12 102.728 1461.69 Q104.557 1465.23 108.168 1465.23 Q111.802 1465.23 113.608 1461.69 Q115.436 1458.12 115.436 1451.02 Q115.436 1443.89 113.608 1440.35 Q111.802 1436.78 108.168 1436.78 M108.168 1433.08 Q113.978 1433.08 117.033 1437.68 Q120.112 1442.27 120.112 1451.02 Q120.112 1459.74 117.033 1464.35 Q113.978 1468.93 108.168 1468.93 Q102.358 1468.93 99.2789 1464.35 Q96.2234 1459.74 96.2234 1451.02 Q96.2234 1442.27 99.2789 1437.68 Q102.358 1433.08 108.168 1433.08 Z" fill="#000000" fill-rule="evenodd" fill-opacity="1"></path><path clip-path="url(#clip980)" d="M138.33 1436.78 Q134.719 1436.78 132.89 1440.35 Q131.084 1443.89 131.084 1451.02 Q131.084 1458.12 132.89 1461.69 Q134.719 1465.23 138.33 1465.23 Q141.964 1465.23 143.769 1461.69 Q145.598 1458.12 145.598 1451.02 Q145.598 1443.89 143.769 1440.35 Q141.964 1436.78 138.33 1436.78 M138.33 1433.08 Q144.14 1433.08 147.195 1437.68 Q150.274 1442.27 150.274 1451.02 Q150.274 1459.74 147.195 1464.35 Q144.14 1468.93 138.33 1468.93 Q132.519 1468.93 129.441 1464.35 Q126.385 1459.74 126.385 1451.02 Q126.385 1442.27 129.441 1437.68 Q132.519 1433.08 138.33 1433.08 Z" fill="#000000" fill-rule="evenodd" fill-opacity="1"></path><path clip-path="url(#clip980)" d="M63.9319 1115.68 Q60.3208 1115.68 58.4921 1119.25 Q56.6865 1122.79 56.6865 1129.92 Q56.6865 1137.02 58.4921 1140.59 Q60.3208 1144.13 63.9319 1144.13 Q67.5661 1144.13 69.3717 1140.59 Q71.2004 1137.02 71.2004 1129.92 Q71.2004 1122.79 69.3717 1119.25 Q67.5661 1115.68 63.9319 1115.68 M63.9319 1111.98 Q69.742 1111.98 72.7976 1116.58 Q75.8763 1121.17 75.8763 1129.92 Q75.8763 1138.64 72.7976 1143.25 Q69.742 1147.83 63.9319 1147.83 Q58.1217 1147.83 55.043 1143.25 Q51.9875 1138.64 51.9875 1129.92 Q51.9875 1121.17 55.043 1116.58 Q58.1217 1111.98 63.9319 1111.98 Z" fill="#000000" fill-rule="evenodd" fill-opacity="1"></path><path clip-path="url(#clip980)" d="M84.0938 1141.28 L88.978 1141.28 L88.978 1147.16 L84.0938 1147.16 L84.0938 1141.28 Z" fill="#000000" fill-rule="evenodd" fill-opacity="1"></path><path clip-path="url(#clip980)" d="M103.191 1143.23 L119.51 1143.23 L119.51 1147.16 L97.566 1147.16 L97.566 1143.23 Q100.228 1140.47 104.811 1135.84 Q109.418 1131.19 110.598 1129.85 Q112.844 1127.32 113.723 1125.59 Q114.626 1123.83 114.626 1122.14 Q114.626 1119.38 112.682 1117.65 Q110.76 1115.91 107.658 1115.91 Q105.459 1115.91 103.006 1116.68 Q100.575 1117.44 97.7974 1118.99 L97.7974 1114.27 Q100.621 1113.13 103.075 1112.56 Q105.529 1111.98 107.566 1111.98 Q112.936 1111.98 116.131 1114.66 Q119.325 1117.35 119.325 1121.84 Q119.325 1123.97 118.515 1125.89 Q117.728 1127.79 115.621 1130.38 Q115.043 1131.05 111.941 1134.27 Q108.839 1137.46 103.191 1143.23 Z" fill="#000000" fill-rule="evenodd" fill-opacity="1"></path><path clip-path="url(#clip980)" d="M129.371 1112.6 L147.728 1112.6 L147.728 1116.54 L133.654 1116.54 L133.654 1125.01 Q134.672 1124.66 135.691 1124.5 Q136.709 1124.31 137.728 1124.31 Q143.515 1124.31 146.894 1127.49 Q150.274 1130.66 150.274 1136.07 Q150.274 1141.65 146.802 1144.75 Q143.33 1147.83 137.01 1147.83 Q134.834 1147.83 132.566 1147.46 Q130.32 1147.09 127.913 1146.35 L127.913 1141.65 Q129.996 1142.79 132.219 1143.34 Q134.441 1143.9 136.918 1143.9 Q140.922 1143.9 143.26 1141.79 Q145.598 1139.69 145.598 1136.07 Q145.598 1132.46 143.26 1130.36 Q140.922 1128.25 136.918 1128.25 Q135.043 1128.25 133.168 1128.67 Q131.316 1129.08 129.371 1129.96 L129.371 1112.6 Z" fill="#000000" fill-rule="evenodd" fill-opacity="1"></path><path clip-path="url(#clip980)" d="M62.9365 794.581 Q59.3254 794.581 57.4967 798.146 Q55.6912 801.687 55.6912 808.817 Q55.6912 815.923 57.4967 819.488 Q59.3254 823.03 62.9365 823.03 Q66.5707 823.03 68.3763 819.488 Q70.205 815.923 70.205 808.817 Q70.205 801.687 68.3763 798.146 Q66.5707 794.581 62.9365 794.581 M62.9365 790.877 Q68.7467 790.877 71.8022 795.484 Q74.8809 800.067 74.8809 808.817 Q74.8809 817.544 71.8022 822.15 Q68.7467 826.734 62.9365 826.734 Q57.1264 826.734 54.0477 822.15 Q50.9921 817.544 50.9921 808.817 Q50.9921 800.067 54.0477 795.484 Q57.1264 790.877 62.9365 790.877 Z" fill="#000000" fill-rule="evenodd" fill-opacity="1"></path><path clip-path="url(#clip980)" d="M83.0984 820.183 L87.9827 820.183 L87.9827 826.062 L83.0984 826.062 L83.0984 820.183 Z" fill="#000000" fill-rule="evenodd" fill-opacity="1"></path><path clip-path="url(#clip980)" d="M98.2141 791.502 L116.57 791.502 L116.57 795.437 L102.496 795.437 L102.496 803.91 Q103.515 803.562 104.534 803.4 Q105.552 803.215 106.571 803.215 Q112.358 803.215 115.737 806.386 Q119.117 809.558 119.117 814.974 Q119.117 820.553 115.645 823.655 Q112.172 826.734 105.853 826.734 Q103.677 826.734 101.409 826.363 Q99.1632 825.993 96.7558 825.252 L96.7558 820.553 Q98.8391 821.687 101.061 822.243 Q103.284 822.798 105.76 822.798 Q109.765 822.798 112.103 820.692 Q114.441 818.585 114.441 814.974 Q114.441 811.363 112.103 809.257 Q109.765 807.15 105.76 807.15 Q103.885 807.15 102.01 807.567 Q100.159 807.984 98.2141 808.863 L98.2141 791.502 Z" fill="#000000" fill-rule="evenodd" fill-opacity="1"></path><path clip-path="url(#clip980)" d="M138.33 794.581 Q134.719 794.581 132.89 798.146 Q131.084 801.687 131.084 808.817 Q131.084 815.923 132.89 819.488 Q134.719 823.03 138.33 823.03 Q141.964 823.03 143.769 819.488 Q145.598 815.923 145.598 808.817 Q145.598 801.687 143.769 798.146 Q141.964 794.581 138.33 794.581 M138.33 790.877 Q144.14 790.877 147.195 795.484 Q150.274 800.067 150.274 808.817 Q150.274 817.544 147.195 822.15 Q144.14 826.734 138.33 826.734 Q132.519 826.734 129.441 822.15 Q126.385 817.544 126.385 808.817 Q126.385 800.067 129.441 795.484 Q132.519 790.877 138.33 790.877 Z" fill="#000000" fill-rule="evenodd" fill-opacity="1"></path><path clip-path="url(#clip980)" d="M63.9319 473.481 Q60.3208 473.481 58.4921 477.046 Q56.6865 480.588 56.6865 487.717 Q56.6865 494.824 58.4921 498.389 Q60.3208 501.93 63.9319 501.93 Q67.5661 501.93 69.3717 498.389 Q71.2004 494.824 71.2004 487.717 Q71.2004 480.588 69.3717 477.046 Q67.5661 473.481 63.9319 473.481 M63.9319 469.778 Q69.742 469.778 72.7976 474.384 Q75.8763 478.967 75.8763 487.717 Q75.8763 496.444 72.7976 501.051 Q69.742 505.634 63.9319 505.634 Q58.1217 505.634 55.043 501.051 Q51.9875 496.444 51.9875 487.717 Q51.9875 478.967 55.043 474.384 Q58.1217 469.778 63.9319 469.778 Z" fill="#000000" fill-rule="evenodd" fill-opacity="1"></path><path clip-path="url(#clip980)" d="M84.0938 499.083 L88.978 499.083 L88.978 504.963 L84.0938 504.963 L84.0938 499.083 Z" fill="#000000" fill-rule="evenodd" fill-opacity="1"></path><path clip-path="url(#clip980)" d="M97.9826 470.403 L120.205 470.403 L120.205 472.393 L107.658 504.963 L102.774 504.963 L114.58 474.338 L97.9826 474.338 L97.9826 470.403 Z" fill="#000000" fill-rule="evenodd" fill-opacity="1"></path><path clip-path="url(#clip980)" d="M129.371 470.403 L147.728 470.403 L147.728 474.338 L133.654 474.338 L133.654 482.81 Q134.672 482.463 135.691 482.301 Q136.709 482.116 137.728 482.116 Q143.515 482.116 146.894 485.287 Q150.274 488.458 150.274 493.875 Q150.274 499.453 146.802 502.555 Q143.33 505.634 137.01 505.634 Q134.834 505.634 132.566 505.264 Q130.32 504.893 127.913 504.152 L127.913 499.453 Q129.996 500.588 132.219 501.143 Q134.441 501.699 136.918 501.699 Q140.922 501.699 143.26 499.592 Q145.598 497.486 145.598 493.875 Q145.598 490.264 143.26 488.157 Q140.922 486.051 136.918 486.051 Q135.043 486.051 133.168 486.467 Q131.316 486.884 129.371 487.764 L129.371 470.403 Z" fill="#000000" fill-rule="evenodd" fill-opacity="1"></path><path clip-path="url(#clip980)" d="M53.7467 179.928 L61.3856 179.928 L61.3856 153.562 L53.0754 155.229 L53.0754 150.97 L61.3393 149.303 L66.0152 149.303 L66.0152 179.928 L73.654 179.928 L73.654 183.863 L53.7467 183.863 L53.7467 179.928 Z" fill="#000000" fill-rule="evenodd" fill-opacity="1"></path><path clip-path="url(#clip980)" d="M83.0984 177.983 L87.9827 177.983 L87.9827 183.863 L83.0984 183.863 L83.0984 177.983 Z" fill="#000000" fill-rule="evenodd" fill-opacity="1"></path><path clip-path="url(#clip980)" d="M108.168 152.382 Q104.557 152.382 102.728 155.946 Q100.922 159.488 100.922 166.618 Q100.922 173.724 102.728 177.289 Q104.557 180.831 108.168 180.831 Q111.802 180.831 113.608 177.289 Q115.436 173.724 115.436 166.618 Q115.436 159.488 113.608 155.946 Q111.802 152.382 108.168 152.382 M108.168 148.678 Q113.978 148.678 117.033 153.284 Q120.112 157.868 120.112 166.618 Q120.112 175.344 117.033 179.951 Q113.978 184.534 108.168 184.534 Q102.358 184.534 99.2789 179.951 Q96.2234 175.344 96.2234 166.618 Q96.2234 157.868 99.2789 153.284 Q102.358 148.678 108.168 148.678 Z" fill="#000000" fill-rule="evenodd" fill-opacity="1"></path><path clip-path="url(#clip980)" d="M138.33 152.382 Q134.719 152.382 132.89 155.946 Q131.084 159.488 131.084 166.618 Q131.084 173.724 132.89 177.289 Q134.719 180.831 138.33 180.831 Q141.964 180.831 143.769 177.289 Q145.598 173.724 145.598 166.618 Q145.598 159.488 143.769 155.946 Q141.964 152.382 138.33 152.382 M138.33 148.678 Q144.14 148.678 147.195 153.284 Q150.274 157.868 150.274 166.618 Q150.274 175.344 147.195 179.951 Q144.14 184.534 138.33 184.534 Q132.519 184.534 129.441 179.951 Q126.385 175.344 126.385 166.618 Q126.385 157.868 129.441 153.284 Q132.519 148.678 138.33 148.678 Z" fill="#000000" fill-rule="evenodd" fill-opacity="1"></path><polyline clip-path="url(#clip982)" style="stroke:#009af9; stroke-linecap:round; stroke-linejoin:round; stroke-width:4; stroke-opacity:1; fill:none" points="
  247.59,87.9763 268.234,162.365 288.879,232.695 309.524,299.185 330.169,362.047 350.814,421.478 371.459,477.666 392.104,530.787 412.749,581.008 433.394,628.489 
  454.039,673.378 474.684,715.818 495.329,755.941 515.974,793.875 536.619,829.738 557.264,863.643 577.909,895.699 598.554,926.005 619.199,954.656 639.844,981.744 
  660.489,1007.35 681.134,1031.57 701.779,1054.46 722.424,1076.1 743.069,1096.56 763.713,1115.9 784.358,1134.19 805.003,1151.48 825.648,1167.82 846.293,1183.28 
  866.938,1197.89 887.583,1211.7 908.228,1224.76 928.873,1237.11 949.518,1248.78 970.163,1259.82 990.808,1270.25 1011.45,1280.11 1032.1,1289.44 1052.74,1298.26 
  1073.39,1306.59 1094.03,1314.47 1114.68,1321.92 1135.32,1328.97 1155.97,1335.62 1176.61,1341.92 1197.26,1347.87 1217.9,1353.5 1238.55,1358.82 1259.19,1363.85 
  1279.84,1368.61 1300.48,1373.1 1321.13,1377.35 1341.77,1381.37 1362.42,1385.17 1383.06,1388.76 1403.71,1392.16 1424.35,1395.37 1445,1398.4 1465.64,1401.27 
  1486.29,1403.99 1506.93,1406.55 1527.58,1408.98 1548.22,1411.27 1568.87,1413.44 1589.51,1415.48 1610.16,1417.42 1630.8,1419.25 1651.45,1420.99 1672.09,1422.62 
  1692.74,1424.17 1713.38,1425.63 1734.03,1427.02 1754.67,1428.32 1775.32,1429.56 1795.96,1430.73 1816.61,1431.84 1837.25,1432.88 1857.9,1433.87 1878.54,1434.8 
  1899.19,1435.69 1919.83,1436.52 1940.48,1437.31 1961.12,1438.06 1981.77,1438.76 2002.41,1439.43 2023.06,1440.06 2043.7,1440.65 2064.35,1441.22 2084.99,1441.75 
  2105.64,1442.26 2126.28,1442.73 2146.93,1443.18 2167.57,1443.61 2188.22,1444.01 2208.86,1444.39 2229.51,1444.75 2250.15,1445.09 2270.8,1445.41 2291.44,1445.72 
  
  "></polyline>
<path clip-path="url(#clip980)" d="
M1987.39 198.898 L2280.54 198.898 L2280.54 95.2176 L1987.39 95.2176  Z
  " fill="#ffffff" fill-rule="evenodd" fill-opacity="1"></path>
<polyline clip-path="url(#clip980)" style="stroke:#000000; stroke-linecap:round; stroke-linejoin:round; stroke-width:4; stroke-opacity:1; fill:none" points="
  1987.39,198.898 2280.54,198.898 2280.54,95.2176 1987.39,95.2176 1987.39,198.898 
  "></polyline>
<polyline clip-path="url(#clip980)" style="stroke:#009af9; stroke-linecap:round; stroke-linejoin:round; stroke-width:4; stroke-opacity:1; fill:none" points="
  2011.46,147.058 2155.89,147.058 
  "></polyline>
<path clip-path="url(#clip980)" d="M2193.81 166.745 Q2192 171.375 2190.29 172.787 Q2188.58 174.199 2185.71 174.199 L2182.3 174.199 L2182.3 170.634 L2184.8 170.634 Q2186.56 170.634 2187.53 169.8 Q2188.51 168.967 2189.69 165.865 L2190.45 163.921 L2179.97 138.412 L2184.48 138.412 L2192.58 158.689 L2200.68 138.412 L2205.2 138.412 L2193.81 166.745 Z" fill="#000000" fill-rule="evenodd" fill-opacity="1"></path><path clip-path="url(#clip980)" d="M2212.49 160.402 L2220.13 160.402 L2220.13 134.037 L2211.82 135.703 L2211.82 131.444 L2220.08 129.778 L2224.76 129.778 L2224.76 160.402 L2232.4 160.402 L2232.4 164.338 L2212.49 164.338 L2212.49 160.402 Z" fill="#000000" fill-rule="evenodd" fill-opacity="1"></path></svg>